<?xml version="1.0" encoding="utf-8"?>
<!-- Generator: Adobe Illustrator 21.0.0, SVG Export Plug-In . SVG Version: 6.00 Build 0)  -->
<svg version="1.1" id="图层_1" xmlns="http://www.w3.org/2000/svg" xmlns:xlink="http://www.w3.org/1999/xlink" x="0px" y="0px"
	 viewBox="0 0 633 52" style="enable-background:new 0 0 633 52;" xml:space="preserve">
<style type="text/css">
	.st0{fill:none;enable-background:new    ;}
	.st1{fill:#ECECEC;}
</style>
<path class="st0" d="M0,0"/>
<g>
	<path class="st1" d="M559.9,0H559c-16.7,1.2-25.5,9.9-26.4,26.3c0.5,16.7,9,25.2,25.7,25.7h0.7c16.2-0.9,25.1-9.6,26.6-26.1
		C584.2,9,575.7,0.4,559.9,0z M559,48h-0.5c-9.2-0.3-14.1-6.8-14.6-19.5c0-15.7,5.1-23.7,15.1-24.3h0.4c9,0.7,13.9,7.5,14.6,20.3
		C573.3,39.7,568.2,47.5,559,48z"/>
	<path class="st1" d="M406.5,51.1h-3h-3c-5.9-16.5-12-33.2-18.4-49.8c0.5,0,1.6,0,3,0.2c1.2,0.3,2.3,0.3,3,0c0.7,0.3,1.7,0.3,3,0
		c1.4-0.2,2.5-0.2,3.3-0.2c0.7,4,4.7,16,12.2,36c5.9-15.6,10.3-27.6,12.9-36h3.3h3c-1.4,3.1-3.5,8-5.9,14.6
		C413.6,31.3,409.1,43,406.5,51.1"/>
	<path class="st1" d="M454.8,51.1V1.4c0.4,0,1.1,0,2.1,0.2h3c0.5,0.3,1.4,0.3,2.4,0c1-0.2,2.1-0.2,2.8-0.2v23
		c6.1-7.7,12.2-15.3,18.1-23c0.4,0,0.9,0,1.6,0.2c0.7,0.3,1.4,0.3,1.9,0c0.4,0.3,1,0.3,1.9,0c0.7-0.2,1.4-0.2,1.9-0.2v0.5
		l-11.3,12.7c-1.2,1-2.4,2.6-4.2,4.5c-1,1.6-1.9,2.6-2.4,3.1l18.6,28.4v0.5h-5.4h-5l-15.7-22.8v22.8h-5.2H454.8z"/>
	<path class="st1" d="M187.1,3.3l-0.5-1.9c0.5,0,1.4,0,2.6,0.2c1.4,0.3,2.3,0.3,3,0c0.7,0.3,1.5,0.3,2.8,0c1.2-0.2,2.3-0.2,3-0.2
		c1.4,7.5,4.2,18.3,8.2,32.7c0.4,1.8,0.7,3.2,1.1,4c1-3.5,2.8-8.7,5-15.8c3.1-9.2,5.4-16.2,6.8-20.9h3.5h3.7
		c1.5,6.6,3.5,13.4,5.5,20c1.9,5.6,3.5,11.1,5.2,16.7c0-0.7,0.2-1.5,0.5-2.6c4.7-14.8,7.8-26.1,9.7-34.1h3.2h3.3
		c-6.8,19.3-12.2,35.8-16,49.8H234h-3.5c-3.5-11.8-7.2-23.7-11.1-35.5c-6.2,17.9-10.3,29.7-12.2,35.5h-3.1h-3.5
		c-2.3-7.8-5.4-19.1-9.7-34.1C189.5,12.5,188.3,8,187.1,3.3"/>
	<path class="st1" d="M283.4,51.1V1.4h6.8c3.3,3.8,6.6,7.7,10.1,11.5c8.5,9.7,15.1,17.2,19.5,22.6V1.4h3h2.8v49.8h-5.9
		c-2.8-3-6.8-7.7-12-13.7c-4.8-5.7-8.7-10.1-11.1-13l-7.6-8.4v35.1h-2.6L283.4,51.1L283.4,51.1z"/>
	<path class="st1" d="M113,1.4v44.7c2.3,0.2,4.5,0.2,7.2,0c2.2-0.2,5.2-0.7,8.8-1.2c-0.2,0.2-0.4,0.3-0.4,0.5
		c-0.2,0.9-0.2,1.7-0.2,2.6c0,0.9,0,1.7,0.2,3c0,0.2,0.2,0.2,0.4,0.2h-26.4V1.4c0.5,0,1.4,0,2.6,0.2c1.2,0.3,2.1,0.3,2.8,0h2.1
		C111.2,1.4,112.3,1.4,113,1.4"/>
	<path class="st1" d="M34.7,24.9V24c7.2-1.4,11-5.2,11.3-11.8c-0.2-7-4.7-10.6-13.7-10.8h-1.9h-16v49.8h16
		C41,50.8,46.6,46.1,47.1,37C46.9,29.8,42.9,25.7,34.7,24.9z M25,5.6h0.5c1.2-0.3,2.2-0.5,3-0.5c0.7,0,1.4,0.2,1.9,0.3
		c3.5,0.7,5.2,3.5,5.4,8c-0.2,3.5-1.2,6.1-3,7.7c-0.7,0.7-1.5,1.2-2.4,1.5c-1.2,0.5-2.8,0.7-4.5,0.5c-0.3-0.2-0.7-0.3-0.8-0.3V5.6
		H25z M30.4,46.5c-0.7,0.2-1.4,0.3-2.1,0.5H25V27.1c2.1-0.2,3.8,0,5.4,0.3c4.2,1.2,6.3,4.5,6.3,9.9C36.3,42.3,34.2,45.4,30.4,46.5z"
		/>
</g>
</svg>
