<?xml version="1.0" encoding="utf-8"?>
<!-- Generator: Adobe Illustrator 21.0.0, SVG Export Plug-In . SVG Version: 6.00 Build 0)  -->
<svg version="1.1" id="图层_1" xmlns="http://www.w3.org/2000/svg" xmlns:xlink="http://www.w3.org/1999/xlink" x="0px" y="0px"
	 viewBox="0 0 628 52" style="enable-background:new 0 0 628 52;" xml:space="preserve">
<style type="text/css">
	.st0{fill:none;enable-background:new    ;}
	.st1{fill:#ECECEC;}
</style>
<path class="st0" d="M28,0"/>
<g>
	<path class="st1" d="M616.7,46.9c-4.4-6.7-8.4-13.5-12.3-20.9c6.9-1.7,10.4-6.2,10.7-13.4c0-4.7-2.1-8.2-6-10.3
		c-2-0.9-5.3-1.4-10.2-1.4h-1h-15.1v50.3h5.3h5.5V27.8h0.3c1.4,2.8,3,5.6,4.6,8.4l0.5,0.9l7.7,14h6.5h6.3L616.7,46.9z M599,24.1
		c-1.4,0.5-3.3,0.7-5.4,0.5v-20h0.9c1.8,0,3.3,0.2,4.6,0.7c2.8,0.7,4.6,2.5,5.3,5.1c0.2,1.6,0.2,2.8,0.2,3.5
		C604.3,19.3,602.5,22.8,599,24.1z"/>
	<path class="st1" d="M421.4,51.1V0.9c0.5,0,1.4,0,2.6,0.2h2.5c0.7,0.3,1.6,0.3,2.8,0c1-0.2,1.9-0.2,2.8-0.2v50.3h-5.6h-5.1V51.1z"
		/>
	<path class="st1" d="M505.7,6v45.2h-5.3h-5.1V6c-2.8,0-6.3,0.3-10.7,0.9h-2.5c0.2-0.7,0.3-1.7,0.3-3.1c0-0.9-0.1-2-0.3-2.8h36
		c-0.4,0.9-0.4,1.9-0.1,2.8c-0.2,1.4-0.2,2.4,0.1,3.1c-1.4,0-2.8,0-4-0.2C510.4,6.3,507.6,6,505.7,6"/>
	<path class="st1" d="M367.1,26.5l-3.9-4.2c-2.1,4.9-5,9.7-8.1,14.1l-10.2-13l-0.9-1.1c6-3.9,8.8-8.1,8.8-12.4
		c-0.3-5.3-3.9-8.3-10.4-9h-1.1c-8.3,0.7-12.5,4.6-12.8,11.2c-0.2,3.3,1.4,7.2,4.6,12c0.2,0.3,0.3,0.5,0.5,0.5
		c-8.3,4.2-12.5,9.3-12.5,15.3c0,3.9,1.4,6.9,4,9c3,2.1,6.3,3.1,10.2,3.1c2.4-0.2,4.8-0.7,7-1.4c2.7-1.1,5.3-2.5,7.7-4.4l3.5,4.9
		h6.5h6.9v-0.5c-3.5-3.7-6.7-7.4-9.5-11.2C360.9,35.3,364.1,31.1,367.1,26.5z M342.5,4.4h0.3c2.7,0.4,4.2,2.3,4.6,5.8
		c-0.2,3-1.8,5.9-4.9,8.9c-0.2,0.2-0.4,0.4-0.5,0.5c-0.2,0-0.3-0.2-0.5-0.5c-2.6-4.2-3.8-7.2-3.8-9.3C337.6,6.5,339.1,4.6,342.5,4.4
		z M342.5,46.6c-0.4,0.2-0.9,0.2-1.4,0.3c-1.4,0.2-2.7,0-3.7-0.7c-2.1-0.7-3.7-1.9-4.8-3.3c-1.4-2.5-2.1-4.6-2.1-6.5
		c0-3.2,1.7-6.2,5.1-9c2.3,3.2,4.6,6.1,6.8,9.1c1.9,2.4,3.9,4.7,5.8,7.2C346.5,45.2,344.6,46.2,342.5,46.6z"/>
	<path class="st1" d="M247.4,51.1V0.9c0.6,0,1.4,0,2.7,0.2h2.4c0.7,0.3,1.6,0.3,2.8,0c1-0.2,1.9-0.2,2.8-0.2v50.3h-5.6h-5.1V51.1z"
		/>
	<path class="st1" d="M146.8,0.9h-2h-21.7v50.3h19.3c0.9,0,1.6,0,2.4-0.2c14.6-1.8,22.3-10.5,23.2-26.4
		C167.3,9.7,160.1,1.7,146.8,0.9z M144.8,46.2c-1.6,0.5-3.5,0.7-5.4,0.7h-6V5.1h6.8c1.6,0,3.2,0.2,4.6,0.5c7.6,1.8,11.4,8.1,11.4,19
		C156.3,36.9,152.4,44.1,144.8,46.2z"/>
	<path class="st1" d="M62,0c-0.9,0.4-2,0.5-2.8,0.4c-0.9,0.2-1.7,0-2.5-0.4l-0.3,1.1l-19.9,50h3.7h3.2c0.7-3,2.3-7.6,4.4-13.5
		c0.2-0.5,0.3-1,0.5-1.4h8.1h8.1c1.8,4.9,3.4,10,4.9,14.9h6h5.9L62,0z M56.3,31.4h-6.5l6.5-16l0.3-1l6,17H56.3z"/>
</g>
</svg>
